<svg xmlns="http://www.w3.org/2000/svg" width="469.756" height="549.026" viewBox="0 0 469.756 549.026">
  <g id="Questions-bro" transform="translate(-61.52 -36.509)">
    <g id="freepik--question-marks-2--inject-28" transform="translate(62.02 62.511)">
      <path id="Path_1910" data-name="Path 1910" d="M379.715,358.241v-4.476c0-23.047,29.179-24.049,29.179-40.455,0-7.121-5.8-11.77-14.429-11.77-9.446,0-15.418,5.144-15.418,12.439v1.83c0,1.817-.989,2.672-2.819,2.672l-17.729-.668c-1.657,0-2.819-.828-2.819-1.977v-1.83c0-20.041,15.912-33.815,39.293-33.815,22.873,0,37.623,12.933,37.623,32.319,0,27.522-29.673,27.7-29.673,42.753v2.979a2.538,2.538,0,0,1-2.819,2.819H382.534a2.538,2.538,0,0,1-2.819-2.819Zm-1.5,26.721c0-7.295,6.466-13.267,14.256-13.267,7.468,0,14.1,5.972,14.1,13.267s-6.68,13.267-14.256,13.267-14.1-6-14.1-13.294Z" transform="translate(36.66 19.189)" fill="#263238"/>
      <path id="Path_1911" data-name="Path 1911" d="M116.7,213.574v-3.888c0-20.041,25.385-20.882,25.385-35.138,0-6.2-5.037-10.221-12.519-10.221-8.217,0-13.36,4.462-13.36,10.8v1.59c0,1.577-.855,2.3-2.445,2.3l-15.4-.574c-1.443,0-2.445-.721-2.445-1.723v-1.59c0-17.368,13.815-29.393,34.122-29.393,19.867,0,32.693,11.236,32.693,28.057,0,23.9-25.786,24.049-25.786,37.155v2.592a2.2,2.2,0,0,1-2.445,2.445H119.144a2.2,2.2,0,0,1-2.445-2.4Zm-1.336,23.18c0-6.333,5.611-11.517,12.372-11.517,6.48,0,12.251,5.184,12.251,11.517s-5.772,11.517-12.385,11.517a11.9,11.9,0,0,1-12.2-11.517Z" transform="translate(-50.632 -25.994)" fill="#f4db7d"/>
      <path id="Path_1912" data-name="Path 1912" d="M355.485,90.379V88.415c0-10.114,12.8-10.555,12.8-17.756,0-3.126-2.552-5.17-6.333-5.17-4.142,0-6.76,2.258-6.76,5.464v.8c0,.8-.441,1.162-1.242,1.162l-7.776-.294c-.735,0-1.243-.361-1.243-.868v-.8c0-8.8,6.988-14.843,17.248-14.843,10.034,0,16.513,5.678,16.513,14.189,0,12.024-13.026,12.145-13.026,18.7v1.336a1.109,1.109,0,0,1-1.242,1.229h-7.709a1.1,1.1,0,0,1-1.229-1.189ZM354.83,102.1a6.239,6.239,0,1,1,6.226,5.812,6.012,6.012,0,0,1-6.226-5.812Z" transform="translate(33.048 -56.11)" fill="#f4db7d"/>
      <path id="Path_1913" data-name="Path 1913" d="M75.354,294.861v-2.472c0-12.746,16.139-13.294,16.139-22.379,0-3.941-3.206-6.506-8.016-6.506-5.224,0-8.524,2.846-8.524,6.881v1c0,1.015-.548,1.47-1.563,1.47l-9.806-.361c-.922,0-1.563-.468-1.563-1.109v-1c0-11.089,8.8-18.7,21.737-18.7,12.652,0,20.8,7.148,20.8,17.876,0,15.218-16.407,15.311-16.407,23.661v1.643a1.4,1.4,0,0,1-1.563,1.563h-9.7a1.4,1.4,0,0,1-1.536-1.563Zm-.828,14.763a7.856,7.856,0,1,1,7.8,7.335,7.589,7.589,0,0,1-7.829-7.335Z" transform="translate(-62.02 9.608)" fill="none" stroke="#263238" stroke-width="1"/>
      <path id="Path_1914" data-name="Path 1914" d="M166.282,118.85v-1.7c0-8.764,11.1-9.152,11.1-15.391,0-2.672-2.2-4.476-5.491-4.476-3.594,0-5.865,1.951-5.865,4.73v.695c0,.695-.374,1-1.069,1l-6.68-.254c-.628,0-1.069-.307-1.069-.748v-.695c0-7.629,6.052-12.866,14.937-12.866s14.175,4.917,14.175,12.292c0,10.475-11.29,10.541-11.29,16.273v1.136a.962.962,0,0,1-1.069,1.069h-6.68a.962.962,0,0,1-1-1.069ZM165.721,129a5.344,5.344,0,1,1,5.344,5.05,5.211,5.211,0,0,1-5.384-5.023Z" transform="translate(-30.033 -45.007)" fill="#263238"/>
      <path id="Path_1915" data-name="Path 1915" d="M314.282,393v-1.7c0-8.764,11.1-9.138,11.1-15.391,0-2.672-2.2-4.476-5.491-4.476-3.594,0-5.865,1.951-5.865,4.73v.695c0,.695-.374,1.015-1.069,1.015l-6.68-.254c-.628,0-1.069-.321-1.069-.762v-.695c0-7.629,6.052-12.866,14.937-12.866s14.322,4.917,14.322,12.3c0,10.461-11.29,10.528-11.29,16.26V393a.975.975,0,0,1-1.069,1.082h-6.68A.975.975,0,0,1,314.282,393Zm-.561,10.154a5.344,5.344,0,1,1,5.344,5.05,5.211,5.211,0,0,1-5.331-5.05Z" transform="translate(19.7 47.117)" fill="none" stroke="#263238" stroke-width="1"/>
    </g>
    <g id="freepik--question-mark-1--inject-28" transform="translate(196.105 237.077)">
      <path id="Path_1916" data-name="Path 1916" d="M293.258,418.136c-.094-.281-.187-.561-.294-.842s-.187-.575-.294-.855-.187-.561-.294-.842-.187-.574-.294-.855-.187-.561-.294-.842-.187-.574-.294-.855l-.294-.842c-.094-.294-.2-.574-.294-.855l-.294-.842c-.094-.294-.2-.574-.294-.855l-.294-.842c-.094-.294-.2-.574-.294-.855l-.281-.895c-.094-.294-.2-.574-.294-.855l-.307-.842c-.094-.294-.187-.575-.294-.855s-.187-.561-.294-.842-.187-.574-.294-.855-.187-.561-.294-.842c-4.355-13.254-17.823-22.98-32.639-22.98-14.362,0-26.854,8.364-32.065,20.147-.134.267-.254.548-.374.815l-.361.828c-.134.267-.254.534-.374.815s-.254.548-.374.815l-.361.815c-.134.281-.254.548-.374.828s-.254.534-.374.815-.254.534-.374.815l-.361.815c-.134.267-.254.548-.374.815s-.254.548-.374.815l-.361.828c-.134.267-.254.534-.374.815s-.254.548-.374.815l-.361.815c-.134.281-.254.548-.374.828s-.254.534-.374.815l-.361.815c-.134.267-.254.548-.374.815s-.254.548-.374.828a36.353,36.353,0,0,0-3.447,15.605c0,21.51,18.571,39.092,41.537,39.092,22.472,0,42.018-17.582,42.018-39.092a35.3,35.3,0,0,0-2.124-12.024A7.377,7.377,0,0,0,293.258,418.136Z" transform="translate(-145.666 -122.177)" fill="#263238"/>
      <path id="Path_1917" data-name="Path 1917" d="M278.188,186.8c-68.9,0-115.808,40.549-115.808,99.682v5.344a5.131,5.131,0,0,0,2.538,4.356,6.56,6.56,0,0,0,.935.748,30456.807,30456.807,0,0,1,1.9,1.5,5.343,5.343,0,0,0,.949.748,5.742,5.742,0,0,0,.935.748,5.918,5.918,0,0,0,.949.762,6.683,6.683,0,0,0,.949.748,6.017,6.017,0,0,0,.949.748,5.9,5.9,0,0,0,.935.748,6.212,6.212,0,0,0,1.029.8,7.521,7.521,0,0,0,.868.681,6.678,6.678,0,0,0,.949.748,6.551,6.551,0,0,0,.935.748,6.672,6.672,0,0,0,.949.748,6.006,6.006,0,0,0,.949.748,5.89,5.89,0,0,0,.935.748,6.012,6.012,0,0,0,.949.748,5.891,5.891,0,0,0,.935.748,6.677,6.677,0,0,0,.949.748,5.893,5.893,0,0,0,.935.748,7.87,7.87,0,0,0,5.611,1.951l42.967,1.6c4.422,0,6.827-2,6.827-6.426v-4.409c0-17.676,14.456-30.114,37.409-30.114,20.882,0,34.937,11.236,34.937,28.511a30.881,30.881,0,0,1-.562,5.872c-21.562,28.264-77.689,40.729-77.689,95.6v13.2c0,5.344,2.926,8.3,8.31,8.3h51.731c5.344,0,8.31-2.926,8.31-8.3v-8.8c0-44.463,87.47-44.958,87.47-126.068C389.119,224.9,345.617,186.8,278.188,186.8Z" transform="translate(-162.38 -186.76)" fill="#263238"/>
      <path id="Path_1918" data-name="Path 1918" d="M233.227,416.969v-13.2c0-67.924,86-70.81,86-119.228,0-21.016-17.1-34.737-42.513-34.737-27.856,0-45.425,15.151-45.425,36.647V291.8c0,5.344-2.939,7.829-8.31,7.829l-52.292-1.964c-4.877,0-8.3-2.445-8.3-5.865v-5.344c0-59.133,46.908-99.682,115.808-99.682,67.43,0,110.891,38.1,110.891,95.286,0,81.111-87.47,81.605-87.47,126.068v8.8c0,5.344-2.939,8.3-8.31,8.3H241.537C236.153,425.266,233.227,422.34,233.227,416.969Zm-4.4,78.733c0-21.5,19.052-39.092,42.018-39.092,21.991,0,41.537,17.6,41.537,39.092s-19.586,39.025-42.018,39.025C247.375,534.727,228.831,517.145,228.831,495.7Z" transform="translate(-162.377 -186.77)" fill="#f4db7d" stroke="#f4db7d" stroke-width="1"/>
    </g>
    <g id="freepik--Character--inject-28" transform="translate(227.181 37.063)">
      <path id="Path_1919" data-name="Path 1919" d="M204.652,190.85l-2.792,6.092s-16.219,1.75-16.219,2.966.174,9.593,1.055,9.94a2.873,2.873,0,0,0,2.084,0l23.888-6.106,2.271-10.809Z" transform="translate(-185.64 14.616)" fill="#fff" stroke="#263238" stroke-linecap="round" stroke-linejoin="round" stroke-width="1"/>
      <path id="Path_1920" data-name="Path 1920" d="M199.744,199.6a58.053,58.053,0,0,1-9.553,6.36c-3.861,1.737-4.008,4.369-2.779,4.369s12.131-4.569,12.131-4.569,9.9-2.592,11.33-3.38,1.59-5.17,1.59-5.17" transform="translate(-185.275 16.753)" fill="#fff" stroke="#263238" stroke-linecap="round" stroke-linejoin="round" stroke-width="1"/>
      <path id="Path_1921" data-name="Path 1921" d="M214.8,103.23l-9.967,76.395L197.9,220.988l15.391,3.634L224.768,175.7l5.438-30.8Z" transform="translate(-181.52 -14.828)" fill="#7d7d7d" stroke="#263238" stroke-linecap="round" stroke-linejoin="round" stroke-width="1"/>
      <path id="Path_1922" data-name="Path 1922" d="M275.525,63.258l-6.079-.962L256.994,57.58l-.454,14.79,19.306,1.777Z" transform="translate(-161.815 -30.168)" fill="#fff" stroke="#263238" stroke-linecap="round" stroke-linejoin="round" stroke-width="1"/>
      <path id="Path_1923" data-name="Path 1923" d="M221.5,265.538A187.412,187.412,0,0,0,208.821,282.1c-5.144,7.856-3.327,16.3,3.019,18.424s14.483-3.634,16.607-8.163,1.51-6.934,4.823-11.463,6.039-9.058,4.836-15.1S224.76,261.316,221.5,265.538Z" transform="translate(-178.854 38.46)" fill="#7d7d7d" stroke="#263238" stroke-linecap="round" stroke-linejoin="round" stroke-width="1"/>
      <path id="Path_1924" data-name="Path 1924" d="M227.822,288.082c-.428-.909-.922-1.87-1.51-2.9-4.85-8.537-13.36-7.856-18.7-6.266-3.514,7.174-1.51,14.309,4.249,16.233S225.043,292.37,227.822,288.082Z" transform="translate(-178.843 43.88)" fill="#fff" stroke="#263238" stroke-linecap="round" stroke-linejoin="round" stroke-width="1"/>
      <path id="Path_1925" data-name="Path 1925" d="M226.268,289.587c-1.8,2.672-4.222,9.967-13.587,6.947a12.906,12.906,0,0,1-6.68-4.209,8.8,8.8,0,0,0,5.838,7.228c6.333,2.111,14.483-3.634,16.607-8.163s1.51-6.934,4.823-11.463,6.039-9.058,4.836-15.1c0,7.241-2.672,8.444-6.039,12.372S228.085,286.861,226.268,289.587Z" transform="translate(-178.798 39.475)" fill="#fff" stroke="#263238" stroke-linecap="round" stroke-linejoin="round" stroke-width="1"/>
      <path id="Path_1926" data-name="Path 1926" d="M288.5,265.538A187.43,187.43,0,0,1,301.179,282.1c5.144,7.856,3.327,16.3-3.019,18.424s-14.483-3.634-16.607-8.163-1.51-6.934-4.823-11.463-6.039-9.058-4.836-15.1S285.186,261.316,288.5,265.538Z" transform="translate(-156.753 38.46)" fill="#7d7d7d" stroke="#263238" stroke-linecap="round" stroke-linejoin="round" stroke-width="1"/>
      <path id="Path_1927" data-name="Path 1927" d="M279.52,288.082c.414-.909.908-1.87,1.5-2.9,4.85-8.537,13.36-7.856,18.7-6.266,3.514,7.174,1.51,14.309-4.249,16.233S282.286,292.37,279.52,288.082Z" transform="translate(-154.093 43.88)" fill="#fff" stroke="#263238" stroke-linecap="round" stroke-linejoin="round" stroke-width="1"/>
      <path id="Path_1928" data-name="Path 1928" d="M283.69,289.587c1.8,2.672,4.222,9.967,13.588,6.947a12.906,12.906,0,0,0,6.68-4.209,8.8,8.8,0,0,1-5.838,7.228c-6.333,2.111-14.483-3.634-16.607-8.163s-1.51-6.934-4.823-11.463-6.039-9.058-4.836-15.1c0,7.241,2.672,8.444,6.039,12.372S281.873,286.861,283.69,289.587Z" transform="translate(-156.767 39.475)" fill="#fff" stroke="#263238" stroke-linecap="round" stroke-linejoin="round" stroke-width="1"/>
      <path id="Path_1929" data-name="Path 1929" d="M324.162,192.547c0-5.438-9.352-11.477-9.352-11.477-14.1-14.336-39.533-12.438-48.926-11.156-9.352-1.336-34.817-3.18-48.912,11.156,0,0-9.352,6.039-9.352,11.477S219.4,296.116,219.4,296.116s-.307,5.13,8.15,5.732,12.024-4.222,12.024-4.222l3.327-83.035s13.587-9.673,16.032-9.967c.882-.12,2.031-.307,3.313-.468v.16a17.769,17.769,0,0,1,7.255,0v-.16c1.336.16,2.418.347,3.313.468,2.418.294,16.032,9.967,16.032,9.967l3.327,83.035s3.621,4.823,12.024,4.222,8.15-5.732,8.15-5.732S324.162,197.984,324.162,192.547Z" transform="translate(-178.254 7.281)" fill="#263238" stroke="#263238" stroke-linecap="round" stroke-linejoin="round" stroke-width="1"/>
      <path id="Path_1930" data-name="Path 1930" d="M268.449,210.042s-1.817-19.934,6.947-27.482" transform="translate(-157.866 11.83)" fill="none" stroke="#707070" stroke-linecap="round" stroke-linejoin="round" stroke-width="1"/>
      <path id="Path_1931" data-name="Path 1931" d="M235.5,210.953s.909-16.607-.908-22.646-4.836-8.457-4.836-8.457" transform="translate(-170.814 10.919)" fill="none" stroke="#707070" stroke-linecap="round" stroke-linejoin="round" stroke-width="1"/>
      <path id="Path_1932" data-name="Path 1932" d="M242.42,173.52s9.66,11.169,11.477,20.535" transform="translate(-166.56 8.792)" fill="none" stroke="#707070" stroke-linecap="round" stroke-linejoin="round" stroke-width="1"/>
      <path id="Path_1933" data-name="Path 1933" d="M259.759,174s-5.438,6.039-6.039,10.568" transform="translate(-162.763 8.953)" fill="none" stroke="#707070" stroke-linecap="round" stroke-linejoin="round" stroke-width="1"/>
      <path id="Path_1934" data-name="Path 1934" d="M254.374,86.121s-8.751-1.216-11.771,1.8-13.294,14.149-13.294,14.149l5.438,96.021s12.385,4.836,22.953,4.836,22.646-3.928,25.385-6.039.307-105.079.307-105.079S260.961,85.212,254.374,86.121Z" transform="translate(-170.965 -20.658)" fill="#f4db7d" stroke="#263238" stroke-linecap="round" stroke-linejoin="round" stroke-width="1"/>
      <path id="Path_1935" data-name="Path 1935" d="M261.253,96.885a110.09,110.09,0,0,1,13.881-1.216c6.039,0,12.024.307,12.024.307l15.1-14.5-30.381-6.947,2.418-13.881s22.339-1.51,33.508.6S336.485,68.8,337.394,68.8s2.111,3.327,1.2,5.732-29.313,33.828-37.8,41.978a208.313,208.313,0,0,0-15.7,17.208l-3.875,67.336s9.967,5.438,11.784,7.241,3.928,9.058,3.928,9.058-18.424-7.549-23.26-8.15-7.843-.909-8.751-2.672S256.47,124.1,256.47,124.1l.307-25.665S256.724,96.885,261.253,96.885Z" transform="translate(-161.839 -29.311)" fill="#7d7d7d" stroke="#263238" stroke-linecap="round" stroke-linejoin="round" stroke-width="1"/>
      <path id="Path_1936" data-name="Path 1936" d="M277.713,118.6,261.4,120.711l1.51,6.039,8.163,2.111,7.843-3.621Z" transform="translate(-160.182 -9.663)" fill="none" stroke="#263238" stroke-linecap="round" stroke-linejoin="round" stroke-width="1"/>
      <path id="Path_1937" data-name="Path 1937" d="M281.521,91.48l-3.621,31.7,9.366-26.868" transform="translate(-154.637 -18.776)" fill="none" stroke="#263238" stroke-linecap="round" stroke-linejoin="round" stroke-width="1"/>
      <path id="Path_1938" data-name="Path 1938" d="M290.78,76.869s7.549,1.51,19.025-3.019" transform="translate(-150.309 -24.701)" fill="none" stroke="#263238" stroke-linecap="round" stroke-linejoin="round" stroke-width="1"/>
      <path id="Path_1939" data-name="Path 1939" d="M296.66,77.992a68.231,68.231,0,0,0,14.79-1.2" transform="translate(-148.333 -23.713)" fill="none" stroke="#263238" stroke-linecap="round" stroke-linejoin="round" stroke-width="1"/>
      <path id="Path_1940" data-name="Path 1940" d="M240.39,85.83l1.51,22.045a14.523,14.523,0,0,0,11.77,5.732c7.549-.294,8.457-5.732,8.457-5.732V89.758Z" transform="translate(-167.242 -20.675)" fill="#fff" stroke="#263238" stroke-linecap="round" stroke-linejoin="round" stroke-width="1"/>
      <path id="Path_1941" data-name="Path 1941" d="M257.031,97.5l-.6,18.143,6.346-9.967s6.947,8.751,8.751,8.457-1.2-3.928-1.8-7.241-5.745-15.111-6.346-18.424-6.346-3.928-6.68-2.418a15.419,15.419,0,0,0,0,3.928Z" transform="translate(-161.852 -20.865)" fill="#7d7d7d" stroke="#263238" stroke-linecap="round" stroke-linejoin="round" stroke-width="1"/>
      <path id="Path_1942" data-name="Path 1942" d="M251.637,113.236s1.2,84.544-1.817,85.506-15.1,1.216-22.713,4.836-11.169,5.13-11.169,5.13,3.621-8.751,7.856-12.679a41.7,41.7,0,0,1,9.352-6.346L225.3,149.228s-14.5-38.358-14.8-40.469,27.482-17.809,33.214-20.535,7.255-.294,7.255-.294Z" transform="translate(-177.287 -20.304)" fill="#7d7d7d" stroke="#263238" stroke-linecap="round" stroke-linejoin="round" stroke-width="1"/>
      <path id="Path_1943" data-name="Path 1943" d="M237.673,84.974s-7.241,22.953-7.856,25.973,0,3.019,2.124.9,7.549-7.241,7.549-7.241l5.732,9.66-.307-17.809V86.176S244.62,81.954,237.673,84.974Z" transform="translate(-170.871 -21.328)" fill="#7d7d7d" stroke="#263238" stroke-linecap="round" stroke-linejoin="round" stroke-width="1"/>
      <path id="Path_1944" data-name="Path 1944" d="M225.1,121.77h17.809l-.294,7.241-7.856,2.712-9.967-2.712Z" transform="translate(-172.484 -8.598)" fill="none" stroke="#263238" stroke-linecap="round" stroke-linejoin="round" stroke-width="1"/>
      <path id="Path_1945" data-name="Path 1945" d="M273.015,64.837s4.222,18.411,5.13,21.377-4.823,14.8-6.68,17.515a8.791,8.791,0,0,1-6.68,4.222c-2.111,0-13.588-3.915-16.313-5.732s-5.424-3.928-5.424-3.928a7.255,7.255,0,0,1-7.856-1.2c-3.621-3.327-8.457-7.255-7.255-9.967a7.094,7.094,0,0,1,6.947-4.222c3.327,0,2.124-.307,2.124-.307s-6.039-8.751-6.039-15.7S243.943,54.87,251.491,54.87a40.322,40.322,0,0,1,15.1,3.621Z" transform="translate(-171.49 -31.079)" fill="#fff" stroke="#263238" stroke-linecap="round" stroke-linejoin="round" stroke-width="1"/>
      <path id="Path_1946" data-name="Path 1946" d="M254.328,67.52l5.438,10.274-5.438,3.621L251.91,78.4" transform="translate(-163.371 -26.828)" fill="none" stroke="#263238" stroke-linecap="round" stroke-linejoin="round" stroke-width="1"/>
      <path id="Path_1947" data-name="Path 1947" d="M262.017,74.53s.294,2.418-3.327,6.346" transform="translate(-161.093 -24.472)" fill="none" stroke="#263238" stroke-linecap="round" stroke-linejoin="round" stroke-width="1"/>
      <path id="Path_1948" data-name="Path 1948" d="M250.1,71c0,1.416-.615,2.565-1.336,2.565S247.43,72.411,247.43,71s.615-2.565,1.336-2.565S250.1,69.579,250.1,71Z" transform="translate(-164.876 -26.522)" fill="#263238"/>
      <ellipse id="Ellipse_11" data-name="Ellipse 11" cx="1.363" cy="2.565" rx="1.363" ry="2.565" transform="translate(93.362 37.072)" fill="#263238"/>
      <path id="Path_1949" data-name="Path 1949" d="M242.161,55.109s-19,6.947-19.626,15.712,16.914,20.829,17.823,22.339,3.621-1.817,3.621-1.817a7.014,7.014,0,0,1-1.216-5.732c.909-3.019,4.836-6.68,4.836-8.15s-4.529,1.2-4.529-3.327,11.169-7.241,17.809-6.947,12.385,11.477,17.221,6.039-2.124-6.934-2.124-6.934,9.352-1.216,9.352-6.039-4.836-8.163-6.947-8.163-7.843,3.634-7.843-.294,5.732-5.745.294-12.024-12.372,0-12.372,2.418-1.817,6.934-3.019,6.934-4.836-5.424-9.058-2.4a11.2,11.2,0,0,0-4.222,8.39Z" transform="translate(-173.248 -37.063)" fill="#263238" stroke="#263238" stroke-linecap="round" stroke-linejoin="round" stroke-width="1"/>
      <line id="Line_10" data-name="Line 10" y1="3.634" x2="9.66" transform="translate(76.769 37.673)" fill="none" stroke="#263238" stroke-linecap="round" stroke-linejoin="round" stroke-width="1"/>
      <path id="Path_1950" data-name="Path 1950" d="M251.479,62.8a4.155,4.155,0,0,1,.428-2.779" transform="translate(-163.541 -29.348)" fill="none" stroke="#263238" stroke-linecap="round" stroke-linejoin="round" stroke-width="1"/>
      <path id="Path_1951" data-name="Path 1951" d="M251.78,61.122c.681-1.336,2.218-3.06,5.611-4.462" transform="translate(-163.415 -30.477)" fill="none" stroke="#fff" stroke-linecap="round" stroke-linejoin="round" stroke-width="1"/>
    </g>
  </g>
</svg>
